<svg width="32" height="33" viewBox="0 0 32 33" fill="none" xmlns="http://www.w3.org/2000/svg">
<path d="M25 14.5C25 21.5 16 27.5 16 27.5C16 27.5 7 21.5 7 14.5C7 12.1131 7.94821 9.82387 9.63604 8.13604C11.3239 6.44821 13.6131 5.5 16 5.5C18.3869 5.5 20.6761 6.44821 22.364 8.13604C24.0518 9.82387 25 12.1131 25 14.5Z" stroke="#2BB1B4" stroke-width="2" stroke-linecap="round" stroke-linejoin="round"/>
<path d="M16 17.5C17.6569 17.5 19 16.1569 19 14.5C19 12.8431 17.6569 11.5 16 11.5C14.3431 11.5 13 12.8431 13 14.5C13 16.1569 14.3431 17.5 16 17.5Z" stroke="#2BB1B4" stroke-width="2" stroke-linecap="round" stroke-linejoin="round"/>
</svg>
