<svg width="40" height="40" viewBox="0 0 40 40" fill="none" xmlns="http://www.w3.org/2000/svg">
<rect width="40" height="40" rx="20" fill="#FFFBFA"/>
<path d="M29.3036 13.5913C28.766 13.0868 28.1278 12.6866 27.4253 12.4136C26.7228 12.1405 25.9699 12 25.2095 12C24.4491 12 23.6961 12.1405 22.9936 12.4136C22.2912 12.6866 21.6529 13.0868 21.1153 13.5913L19.9997 14.6379L18.8841 13.5913C17.7983 12.5728 16.3256 12.0005 14.79 12.0005C13.2544 12.0005 11.7817 12.5728 10.6958 13.5913C9.61001 14.6099 9 15.9914 9 17.4319C9 18.8723 9.61001 20.2538 10.6958 21.2724L11.8115 22.3189L19.9997 30L28.188 22.3189L29.3036 21.2724C29.8414 20.7681 30.268 20.1694 30.5591 19.5105C30.8502 18.8515 31 18.1452 31 17.4319C31 16.7186 30.8502 16.0123 30.5591 15.3533C30.268 14.6943 29.8414 14.0956 29.3036 13.5913V13.5913Z" stroke="#2BB1B4" stroke-width="2" stroke-linecap="round" stroke-linejoin="round"/>
</svg>
