<svg width="22" height="23" viewBox="0 0 22 23" fill="none" xmlns="http://www.w3.org/2000/svg">
<path d="M20.8881 16.4201V19.4201C20.8892 19.6986 20.8322 19.9743 20.7206 20.2294C20.6091 20.4846 20.4454 20.7137 20.2402 20.902C20.035 21.0902 19.7927 21.2336 19.5289 21.3228C19.265 21.412 18.9855 21.4452 18.7081 21.4201C15.631 21.0857 12.6751 20.0342 10.0781 18.3501C7.66194 16.8148 5.61345 14.7663 4.07812 12.3501C2.38809 9.7413 1.33636 6.77109 1.00812 3.6801C0.983127 3.40356 1.01599 3.12486 1.10462 2.86172C1.19324 2.59859 1.33569 2.35679 1.52288 2.15172C1.71008 1.94665 1.93792 1.78281 2.19191 1.67062C2.44589 1.55843 2.72046 1.50036 2.99812 1.5001H5.99812C6.48342 1.49532 6.95391 1.66718 7.32188 1.98363C7.68985 2.30008 7.93019 2.73954 7.99812 3.2201C8.12474 4.18016 8.35957 5.12282 8.69812 6.0301C8.83266 6.38802 8.86178 6.77701 8.78202 7.15098C8.70227 7.52494 8.51698 7.86821 8.24812 8.1401L6.97812 9.4101C8.40167 11.9136 10.4746 13.9865 12.9781 15.4101L14.2481 14.1401C14.52 13.8712 14.8633 13.6859 15.2372 13.6062C15.6112 13.5264 16.0002 13.5556 16.3581 13.6901C17.2654 14.0286 18.2081 14.2635 19.1681 14.3901C19.6539 14.4586 20.0975 14.7033 20.4146 15.0776C20.7318 15.4519 20.9003 15.9297 20.8881 16.4201Z" stroke="#2BB1B4" stroke-width="2" stroke-linecap="round" stroke-linejoin="round"/>
</svg>
