<svg width="21" height="22" viewBox="0 0 21 22" fill="none" xmlns="http://www.w3.org/2000/svg">
<path d="M4.5 1L1.5 5V19C1.5 19.5304 1.71071 20.0391 2.08579 20.4142C2.46086 20.7893 2.96957 21 3.5 21H17.5C18.0304 21 18.5391 20.7893 18.9142 20.4142C19.2893 20.0391 19.5 19.5304 19.5 19V5L16.5 1H4.5Z" stroke="#FFFBFA" stroke-width="2" stroke-linecap="round" stroke-linejoin="round"/>
<path d="M1.5 5H19.5" stroke="#FFFBFA" stroke-width="2" stroke-linecap="round" stroke-linejoin="round"/>
<path d="M14.5 9C14.5 10.0609 14.0786 11.0783 13.3284 11.8284C12.5783 12.5786 11.5609 13 10.5 13C9.43913 13 8.42172 12.5786 7.67157 11.8284C6.92143 11.0783 6.5 10.0609 6.5 9" stroke="#FFFBFA" stroke-width="2" stroke-linecap="round" stroke-linejoin="round"/>
</svg>
